<svg xmlns="http://www.w3.org/2000/svg" xmlns:xlink="http://www.w3.org/1999/xlink" id="Layer_1" x="0" y="0" enable-background="new 0 0 512 512" focusable="false" version="1.1" viewBox="0 0 512 512" xml:space="preserve"><style type="text/css">.st0{fill:#5a5a5a}</style><path d="M80,368H16c-8.8,0-16,7.2-16,16v64c0,8.8,7.2,16,16,16h64c8.8,0,16-7.2,16-16v-64C96,375.2,88.8,368,80,368z M80,48H16C7.2,48,0,55.2,0,64v64c0,8.8,7.2,16,16,16h64c8.8,0,16-7.2,16-16V64C96,55.2,88.8,48,80,48z M80,208H16	c-8.8,0-16,7.2-16,16v64c0,8.8,7.2,16,16,16h64c8.8,0,16-7.2,16-16v-64C96,215.2,88.8,208,80,208z M496,384H176c-8.8,0-16,7.2-16,16	v32c0,8.8,7.2,16,16,16h320c8.8,0,16-7.2,16-16v-32C512,391.2,504.8,384,496,384z M496,64H176c-8.8,0-16,7.2-16,16v32	c0,8.8,7.2,16,16,16h320c8.8,0,16-7.2,16-16V80C512,71.2,504.8,64,496,64z M496,224H176c-8.8,0-16,7.2-16,16v32c0,8.8,7.2,16,16,16	h320c8.8,0,16-7.2,16-16v-32C512,231.2,504.8,224,496,224z" class="st0"/></svg>